Coordinates
version=1
nRows=42
nColumns=38
inDegrees=no

Units are S.I. units (second, meters, Newtons, ...)
If the header above contains a line with 'inDegrees', this indicates whether rotational values are in degrees (yes) or radians (no).

endheader
time	pelvis_tilt	pelvis_list	pelvis_rotation	pelvis_tx	pelvis_ty	pelvis_tz	hip_flexion_r	hip_adduction_r	hip_rotation_r	knee_angle_r	ankle_angle_r	subtalar_angle_r	mtp_angle_r	hip_flexion_l	hip_adduction_l	hip_rotation_l	knee_angle_l	ankle_angle_l	subtalar_angle_l	mtp_angle_l	lumbar_extension	lumbar_bending	lumbar_rotation	arm_flex_r	arm_add_r	arm_rot_r	elbow_flex_r	pro_sup_r	wrist_flex_r	wrist_dev_r	arm_flex_l	arm_add_l	arm_rot_l	elbow_flex_l	pro_sup_l	wrist_flex_l	wrist_dev_l
13.56	-3.02376	1.35571	-1.94532	0.754773	-1.17526	0.954303	-0.321359	0.0459129	-0.27681	0.0717841	0.523599	0	0	0.227836	-0.128263	-0.467604	0.45486	-0.113521	0	0	-0.501199	-0.0992225	0.218476	0.426452	-0.43589	0.179219	2.14982	0	0	0	0.183865	-0.385258	-0.240861	2.17658	0	0	0
13.57	-2.81635	1.38581	-2.11619	0.748973	-1.16793	0.947989	-0.255314	-0.0216328	-0.529075	0.153958	0.523599	0	0	0.21162	-0.0350081	-0.322196	0.262509	-0.167043	0	0	-0.433354	-0.104025	0.18299	0.367216	-0.477816	0.38632	1.9619	0	0	0	0.14027	-0.38395	-0.245412	2.18145	0	0	0
13.58	-3.0639	1.3499	-1.90672	0.755117	-1.17436	0.954576	-0.323267	0.0298683	-0.402128	0.10231	0.523599	0	0	0.172459	-0.0981499	-0.365178	0.354876	-0.113188	0	0	-0.49995	-0.0934679	0.228016	0.372652	-0.490138	0.38207	1.98703	0	0	0	0.145878	-0.380651	-0.248146	2.20059	0	0	0
13.59	3.09432	1.37054	-1.77429	0.751508	-1.17009	0.950453	-0.314604	0.0501692	-0.451288	0.117404	0.523599	0	0	0.185643	-0.112702	-0.476227	0.344563	-0.0365015	0	0	-0.471381	-0.0486605	0.239859	0.339709	-0.512539	0.375771	2.01611	0	0	0	0.113405	-0.363839	-0.249015	2.20747	0	0	0
13.6	-2.88967	1.41471	-2.01917	0.745087	-1.1707	0.944944	-0.227338	-0.00588817	-0.593155	0.186451	0.523599	0	0	0.330688	-0.12042	-0.484297	0.504111	-0.0824931	0	0	-0.41268	-0.0671177	0.18563	0.305864	-0.503871	0.359675	2.027	0	0	0	0.0980033	-0.369193	-0.248399	2.2091	0	0	0
13.61	-3.1088	1.41802	-1.81729	0.743895	-1.16762	0.944351	-0.247481	-0.0262092	-0.698132	0.244021	0.523599	0	0	0.327001	-0.165653	-0.64552	0.572115	0.0501836	0	0	-0.409645	-0.0289985	0.217078	0.279701	-0.529313	0.353922	2.05386	0	0	0	0.0694117	-0.348102	-0.251081	2.21097	0	0	0
13.62	-2.76775	1.41969	-2.14252	0.745915	-1.17639	0.944822	-0.204537	-0.0175585	-0.627747	0.171462	0.523599	0	0	0.359872	-0.115818	-0.413201	0.510735	-0.102023	0	0	-0.408556	-0.0873876	0.191206	0.272417	-0.508174	0.340541	2.05932	0	0	0	0.081844	-0.368277	-0.253684	2.22586	0	0	0
13.63	-3.06612	1.36881	-1.89287	0.750975	-1.17356	0.951167	-0.302228	0.0121047	-0.506277	0.123365	0.107146	0	0	0.201364	-0.0987807	-0.469326	0.356472	-0.0355768	0	0	-0.465814	-0.0720767	0.253876	0.247306	-0.53072	0.328739	2.08882	0	0	0	0.0412744	-0.408875	0.0850509	1.9669	0	0	0
13.64	-2.9428	1.40701	-1.98046	0.745055	-1.17508	0.946853	-0.280617	0.0332085	-0.533976	0.0414106	0.0609313	0	0	0.255028	-0.0728312	-0.376577	0.334902	-0.0535032	0	0	-0.42767	-0.0643509	0.219337	0.201177	-0.51621	0.335603	2.05244	0.00757154	0	0	0.0486426	-0.348799	-0.256565	2.23294	0	0	0
13.65	-2.88251	1.41236	-2.02958	0.74309	-1.17727	0.947004	-0.265067	0.0257786	-0.545562	0.0494916	0.0638519	0	0	0.280962	-0.0754998	-0.451659	0.366193	-0.0440993	0	0	-0.422659	-0.06849	0.209867	0.213268	-0.538396	0.314604	2.11379	0	0	0	0.0391149	-0.344639	-0.257841	2.23979	0	0	0
13.66	-2.89786	1.41405	-1.99405	0.740704	-1.18167	0.948863	-0.205902	0.000674179	-0.591456	0.170145	0.109556	0	0	0.278708	-0.0737346	-0.438908	0.33505	-0.0746335	0	0	-0.436121	-0.0574636	0.196264	0.177451	-0.524959	0.31879	2.08126	0.0103001	0	0	0.038564	-0.339101	-0.260073	2.23945	0	0	0
13.67	-2.87445	1.41393	-2.0333	0.742244	-1.1783	0.946916	-0.260351	0.0246036	-0.553254	0.0538484	0.0661415	0	0	0.290733	-0.0774747	-0.457192	0.373563	-0.0431845	0	0	-0.420154	-0.0671265	0.214166	0.171388	-0.548641	0.294936	2.14646	0	0	0	0.0135154	-0.337887	-0.260119	2.25451	0	0	0
13.68	-3.07849	1.35473	-1.87421	0.748934	-1.18342	0.955785	-0.33333	0.0383164	-0.495778	0.0368369	0.0417551	0	0	0.181498	-0.10198	-0.483522	0.318324	-0.0603533	0	0	-0.503541	-0.0765008	0.258061	0.176726	-0.559505	0.289502	2.16665	0	0	0	0.0193063	-0.335275	-0.264063	2.2725	0	0	0
13.69	-2.8713	1.42788	-2.04141	0.740281	-1.17595	0.944405	-0.244281	0.0294511	-0.523412	0.0579487	0.0743348	0	0	0.24819	-0.0627187	-0.432213	0.272549	-0.0431323	0	0	-0.394883	-0.052107	0.236353	0.0849324	-0.546861	0.283287	2.13099	0.0195185	0	0	-0.0454356	-0.375711	0.0867455	2.00444	0	0	0
13.7	-2.79774	1.39858	-2.09117	0.741188	-1.18255	0.94979	-0.263555	0.00993933	-0.573028	0.0568067	0.0652715	0	0	0.31649	-0.0895044	-0.378065	0.432041	-0.116972	0	0	-0.440046	-0.082128	0.20052	0.0951903	-0.531907	0.283109	2.1324	0.0296096	0	0	-0.0130969	-0.339398	-0.258841	2.26688	0	0	0
13.71	-2.85509	1.43422	-2.05033	0.741425	-1.17794	0.944681	-0.235278	0.0354989	-0.529823	0.0569573	0.0719407	0	0	0.302153	-0.0800346	-0.45054	0.344315	-0.0413015	0	0	-0.389705	-0.0557415	0.235166	0.0749171	-0.565409	0.251704	2.20255	0	0	0	-0.0672831	-0.377826	0.0848778	2.02338	0	0	0
13.72	-3.03363	1.36954	-1.90834	0.748471	-1.18532	0.955517	-0.296672	0.0415197	-0.419278	0.0887993	0.523599	0	0	0.255191	-0.132873	-0.505594	0.425021	-0.110576	0	0	-0.484919	-0.0768876	0.266049	0.0897277	-0.56716	0.247969	2.21576	0	0	0	-0.0516106	-0.380414	0.0821669	2.03797	0	0	0
13.73	-2.605	1.4429	-2.27291	0.739142	-1.18051	0.943903	-0.170099	-0.0131879	-0.603195	0.168813	0.523599	0	0	0.349529	-0.0712494	-0.331374	0.372694	-0.112364	0	0	-0.36922	-0.0869789	0.206028	0.0388588	-0.549747	0.229615	2.20251	0	0	0	-0.0603625	-0.334075	-0.253227	2.30466	0	0	0
13.74	-2.46275	1.41882	-2.39818	0.737424	-1.18556	0.94498	-0.172008	-0.0383633	-0.61043	0.138163	0.113236	0	0	0.354104	-0.0419725	-0.374174	0.370091	-0.147293	0	0	-0.391758	-0.107078	0.175883	0.0474297	-0.553019	0.241223	2.22678	0	0	0	-0.0620991	-0.340076	-0.272279	2.30563	0	0	0
13.75	-2.60567	1.42136	-2.25342	0.736609	-1.18161	0.946091	-0.192959	-0.0249961	-0.599626	0.143561	0.117486	0	0	0.345633	-0.0584941	-0.469595	0.397719	-0.117713	0	0	-0.393384	-0.0819526	0.187043	0.0157447	-0.561258	0.230929	2.24107	0	0	0	-0.110105	-0.382015	0.0746937	2.06091	0	0	0
13.76	-2.46679	1.4205	-2.38926	0.737784	-1.18392	0.945046	-0.17282	-0.0336692	-0.587371	0.137462	0.114365	0	0	0.361499	-0.0473946	-0.326261	0.401628	-0.0581537	0	0	-0.384103	-0.102772	0.181615	0.00179796	-0.552718	0.226306	2.24682	0	0	0	-0.117546	-0.390909	0.0724694	2.07118	0	0	0
13.77	-2.81863	1.47826	-2.05377	0.736379	-1.18133	0.939679	-0.16364	0.013653	-0.698132	0.166654	0.523599	0	0	0.403715	-0.127318	-0.505301	0.501769	0.0348292	0	0	-0.350815	-0.0272278	0.218966	-0.0270421	-0.582989	0.216982	2.27026	0	0	0	-0.123958	-0.320105	-0.254555	2.30867	0	0	0
13.78	-2.80316	1.39384	-2.11419	0.746197	-1.19135	0.953344	-0.268964	0.0225068	-0.532137	0.0275774	0.0444993	0	0	0.280217	-0.0952118	-0.349902	0.361255	-0.074595	0	0	-0.457888	-0.10266	0.243263	-0.00141601	-0.565708	0.219776	2.26982	0	0	0	-0.121317	-0.382841	0.0662785	2.08671	0	0	0
13.79	-2.20203	1.45049	-2.66213	0.736988	-1.18046	0.935323	-0.191682	0.0117632	-0.50667	0	0.076203	0	0	0.385975	-0.0202583	-0.381735	0.336552	0.0279592	0	0	-0.319989	-0.0930238	0.193249	-0.0834542	-0.541498	0.24551	2.23508	0.0398457	0	0	-0.0106441	-0.349489	-0.246112	1.85801	1.5708	0	0
13.8	-2.04139	1.44616	-2.82263	0.735532	-1.18167	0.935218	-0.118702	-0.0335738	-0.551786	0.100212	0.113115	0	0	0.399595	-0.0108778	-0.345447	0.313157	0.00168095	0	0	-0.305791	-0.104542	0.190207	-0.0717563	-0.563364	0.226063	2.29248	0	0	0	0.031705	-0.332161	-0.358361	1.90622	1.27516	0	0
13.81	-2.16179	1.44154	-2.69968	0.734551	-1.18064	0.937695	-0.139109	-0.0563088	-0.622124	0.141164	0.139676	0	0	0.379836	-0.0101402	-0.343627	0.308565	-0.000223021	0	0	-0.323162	-0.0997018	0.188109	-0.0861868	-0.567733	0.224991	2.30272	0	0	0	0.0321185	-0.327103	-0.359827	1.89967	1.25417	0	0
13.82	-2.51608	1.4185	-2.39171	0.742795	-1.18474	0.944876	-0.199332	-0.0198019	-0.523382	0.0847208	0.0975205	0	0	0.324537	-0.0500404	-0.405051	0.326932	0.00521137	0	0	-0.390423	-0.11123	0.229638	-0.0785116	-0.567052	0.218902	2.30563	0	0	0	0.0332435	-0.329916	-0.368477	1.91605	1.23728	0	0
13.83	-2.02957	1.4407	-2.83191	0.733709	-1.18136	0.935562	-0.115704	-0.0594279	-0.595377	0.132939	0.133821	0	0	0.425836	-0.0170622	-0.36513	0.364634	0.018507	0	0	-0.309853	-0.105243	0.19167	-0.0888281	-0.520693	-0.0480571	2.49059	0	0	0	0.0170573	-0.326416	-0.367907	1.91045	1.18565	0	0
13.84	-2.2082	1.43271	-2.64776	0.734539	-1.18209	0.937957	-0.146699	-0.0633243	-0.644666	0.150537	0.148645	0	0	0.404564	-0.0200749	-0.34243	0.364887	0.00570205	0	0	-0.340252	-0.11243	0.188691	-0.112988	-0.514605	-0.0571568	2.3978	0.0517073	0	0	-0.200543	-0.322272	-0.337052	2.36183	1.18565	0	0
13.85	-2.58979	1.38323	-2.32236	0.744404	-1.18583	0.94815	-0.243702	-0.0423528	-0.538011	0.085547	0.106053	0	0	0.287529	-0.054185	-0.212655	0.331493	-0.0642531	0	0	-0.433451	-0.139377	0.232736	-0.100992	-0.514064	-0.0505294	2.41224	0.140375	0	0	-0.190724	-0.326979	-0.346701	2.3833	1.18565	0	0
13.86	-2.26284	1.33141	-2.58599	0.737016	-1.18644	0.949594	-0.2223	-0.139304	-0.639699	0.121313	0.133225	0	0	0.230074	0.088725	-0.193001	0.0765195	-0.259445	0	0	-0.432464	-0.205448	0.144238	-0.105761	-0.489855	-0.041014	2.40417	0.166951	0	0	-0.195506	-0.344384	-0.360137	2.39232	1.18565	0	0
13.87	-2.3491	1.38489	-2.53618	0.737013	-1.18003	0.944097	-0.203865	-0.0927829	-0.612479	0.126935	0.141226	0	0	0.255195	0.016512	-0.186681	0.110229	-0.211053	0	0	-0.387047	-0.149405	0.205105	-0.146184	-0.514224	-0.0533966	2.42545	0.221409	0	0	-0.229158	-0.320999	-0.348079	2.38114	1.18565	0	0
13.88	-2.17376	1.41797	-2.69092	0.735587	-1.18112	0.940597	-0.156638	-0.0737169	-0.624757	0.130067	0.140766	0	0	0.413869	-0.028827	-0.173494	0.405277	-0.0469467	0	0	-0.344652	-0.141924	0.201994	-0.173091	-0.487474	-0.0868557	2.41594	0.216673	0	0	-0.233705	-0.325358	-0.333109	2.39666	1.18565	0	0
13.89	-2.0136	1.44678	-2.85542	0.733243	-1.18007	0.935525	-0.119168	-0.0489295	-0.579406	0.114663	0.130217	0	0	0.424986	-0.0382053	-0.13746	0.354167	-0.0413969	0	0	-0.307523	-0.098395	0.201327	-0.17393	-0.521588	-0.052804	2.44507	0.230778	0	0	-0.0780994	-0.321084	-0.400621	1.97055	1.20348	0	0
13.9	-2.54137	1.41498	-2.37527	0.740539	-1.18241	0.945679	-0.211735	-0.0340186	-0.540799	0.0935346	0.112858	0	0	0.298584	-0.0670015	-0.180066	0.283533	-0.0655397	0	0	-0.399934	-0.105588	0.242889	-0.163835	-0.526833	-0.0569053	2.45585	0.249874	0	0	-0.0604375	-0.317563	-0.406914	1.91955	1.20085	0	0
13.91	-2.58438	1.37573	-2.32435	0.74098	-1.18493	0.952532	-0.256903	-0.0498186	-0.555774	0.0724773	0.0959257	0	0	0.240599	-0.0372576	-0.190215	0.224649	-0.12347	0	0	-0.449939	-0.12934	0.223416	-0.155962	-0.519112	-0.0541557	2.45531	0.266967	0	0	-0.0487519	-0.322399	-0.411456	1.89981	1.19699	0	0
13.92	-2.68708	1.36496	-2.23169	0.739517	-1.18113	0.954276	-0.250688	-0.0972546	-0.692519	0.219114	0.523599	0	0	0.233394	-0.0587515	-0.206005	0.273309	-0.090642	0	0	-0.464266	-0.115842	0.235785	-0.175041	-0.530605	-0.0644174	2.46774	0.275067	0	0	-0.0646976	-0.311448	-0.411449	1.90471	1.19543	0	0
13.93	-2.62024	1.37448	-2.29151	0.739235	-1.1833	0.953141	-0.220418	-0.126716	-0.698132	0.269019	0.523599	0	0	0.23001	-0.0473822	-0.211077	0.21752	-0.121544	0	0	-0.454714	-0.119927	0.227616	-0.177106	-0.526099	-0.0654199	2.47027	0.277181	0	0	-0.0674514	-0.31528	-0.413032	1.91405	1.19511	0	0
13.94	-2.55602	1.35193	-2.36952	0.73943	-1.18226	0.954141	-0.222382	-0.160758	-0.698132	0.274214	0.523599	0	0	0.137466	0.0166779	-0.226555	0	-0.280648	0	0	-0.461423	-0.148843	0.22954	-0.18542	-0.524957	-0.0676247	2.47454	0.283221	0	0	-0.0763251	-0.316615	-0.414633	1.9209	1.19338	0	0
13.95	-2.46942	1.38007	-2.44566	0.738182	-1.18306	0.949884	-0.18041	-0.135155	-0.698132	0.266322	0.523599	0	0	0.245809	-0.023972	-0.200805	0.187553	-0.139508	0	0	-0.429082	-0.136444	0.225154	-0.193866	-0.523944	-0.0691913	2.47914	0.293243	0	0	-0.0853695	-0.318078	-0.417081	1.92656	1.18947	0	0
13.96	-2.43281	1.4131	-2.47646	0.734126	-1.17922	0.944598	-0.154215	-0.123596	-0.698132	0.280069	0.523599	0	0	0.347429	-0.0399643	-0.365647	0.330513	-0.00337483	0	0	-0.39021	-0.102528	0.230861	-0.218884	-0.537182	-0.0809406	2.49205	0.294907	0	0	-0.107782	-0.30658	-0.416603	1.93031	1.18895	0	0
13.97	-2.36997	1.367	-2.53835	0.737226	-1.18147	0.94836	-0.234402	-0.0882456	-0.57059	0.0744693	0.11716	0	0	0.282108	0.0297273	-0.340231	0.234822	-0.0420517	0	0	-0.421504	-0.15667	0.209924	-0.207042	-0.517581	-0.070581	2.4869	0.298232	0	0	-0.102706	-0.327036	-0.422386	1.9403	1.18456	0	0
